<svg width="24" height="24" viewBox="0 0 24 24" fill="none" xmlns="http://www.w3.org/2000/svg">
<path id="Vector" d="M11.9968 7.96751C9.79333 7.96751 7.99515 9.7588 7.99515 11.9538C7.99515 14.1488 9.79333 15.9401 11.9968 15.9401C14.2002 15.9401 15.9984 14.1488 15.9984 11.9538C15.9984 9.7588 14.2002 7.96751 11.9968 7.96751ZM23.9987 11.9538C23.9987 10.3031 24.0137 8.66728 23.9206 7.01953C23.8275 5.10563 23.3893 3.40704 21.9843 2.0075C20.5764 0.604965 18.8743 0.171346 16.953 0.0786418C15.2959 -0.0140629 13.6539 0.000889499 11.9998 0.000889499C10.3427 0.000889499 8.70061 -0.0140629 7.04652 0.0786418C5.12526 0.171346 3.42014 0.607955 2.01522 2.0075C0.607291 3.41003 0.172005 5.10563 0.0789442 7.01953C-0.014117 8.67027 0.000892919 10.3061 0.000892919 11.9538C0.000892919 13.6016 -0.014117 15.2403 0.0789442 16.8881C0.172005 18.802 0.610293 20.5006 2.01522 21.9001C3.42314 23.3027 5.12526 23.7363 7.04652 23.829C8.70361 23.9217 10.3457 23.9067 11.9998 23.9067C13.6569 23.9067 15.2989 23.9217 16.953 23.829C18.8743 23.7363 20.5794 23.2997 21.9843 21.9001C23.3923 20.4976 23.8275 18.802 23.9206 16.8881C24.0167 15.2403 23.9987 13.6046 23.9987 11.9538V11.9538ZM11.9968 18.0873C8.58954 18.0873 5.83973 15.348 5.83973 11.9538C5.83973 8.55962 8.58954 5.82035 11.9968 5.82035C15.404 5.82035 18.1538 8.55962 18.1538 11.9538C18.1538 15.348 15.404 18.0873 11.9968 18.0873ZM18.406 7.00159C17.6105 7.00159 16.968 6.36163 16.968 5.56915C16.968 4.77668 17.6105 4.13671 18.406 4.13671C19.2015 4.13671 19.8439 4.77668 19.8439 5.56915C19.8442 5.75733 19.8071 5.9437 19.735 6.1176C19.6628 6.2915 19.5569 6.4495 19.4233 6.58256C19.2897 6.71562 19.1311 6.82113 18.9565 6.89303C18.782 6.96493 18.5949 7.00182 18.406 7.00159V7.00159Z" fill="#F2F2F2"/>
</svg>
