<svg width="24" height="24" viewBox="0 0 24 24" fill="none" xmlns="http://www.w3.org/2000/svg">
<g id="Group">
<path id="Vector" fill-rule="evenodd" clip-rule="evenodd" d="M24 11.954C24 18.5556 18.627 23.908 12 23.908C5.373 23.908 0 18.5556 0 11.954C0 5.35241 5.373 0 12 0C18.627 0 24 5.35241 24 11.954ZM12.43 8.82505C11.263 9.30819 8.93 10.3093 5.432 11.8275C4.864 12.0526 4.566 12.2728 4.539 12.488C4.493 12.8526 4.951 12.996 5.573 13.1903C5.658 13.2172 5.746 13.244 5.836 13.2739C6.449 13.4722 7.273 13.7043 7.701 13.7132C8.09 13.7212 8.524 13.5618 9.003 13.2351C12.271 11.0365 13.958 9.92581 14.064 9.9019C14.139 9.88497 14.243 9.86305 14.313 9.92581C14.383 9.98757 14.376 10.1051 14.369 10.137C14.323 10.3293 12.529 11.9919 11.599 12.8526C11.309 13.1205 11.104 13.3108 11.062 13.3546C10.968 13.4512 10.872 13.5439 10.78 13.6326C10.21 14.1785 9.784 14.5889 10.804 15.2583C11.294 15.5801 11.686 15.846 12.077 16.111C12.504 16.4009 12.93 16.6898 13.482 17.0504C13.622 17.142 13.756 17.2367 13.887 17.3293C14.384 17.683 14.831 17.9997 15.383 17.9499C15.703 17.9201 16.035 17.6202 16.203 16.7247C16.6 14.6068 17.382 10.0204 17.563 8.12972C17.574 7.97274 17.5673 7.81502 17.543 7.65953C17.5284 7.53395 17.4671 7.41839 17.371 7.33578C17.228 7.21923 17.006 7.19432 16.906 7.19631C16.455 7.20428 15.763 7.44436 12.43 8.82505V8.82505Z" fill="#F2F2F2"/>
</g>
</svg>
