<svg width="24" height="25" viewBox="0 0 24 25" fill="none" xmlns="http://www.w3.org/2000/svg">
<path id="Vector" d="M15.6835 0.616211H8.31649C1.5937 0.616211 0 2.2038 0 8.90083V16.2396C0 22.9366 1.5937 24.5242 8.31649 24.5242H15.6835C22.4063 24.5242 24 22.9366 24 16.2396V8.90083C24 2.2038 22.3905 0.616211 15.6835 0.616211ZM19.3749 17.6711H17.6327C16.9727 17.6711 16.7695 17.1496 15.5823 15.9512C14.551 14.9553 14.0943 14.8231 13.8401 14.8231C13.4808 14.8231 13.3788 14.924 13.3788 15.4148V16.983C13.3788 17.4036 13.2461 17.6561 12.1286 17.6561C10.2807 17.6561 8.23024 16.5429 6.79254 14.469C4.62436 11.4298 4.03112 9.15335 4.03112 8.68267C4.03112 8.42941 4.13237 8.19258 4.62061 8.19258H6.36655C6.80829 8.19258 6.97628 8.39504 7.14803 8.86571C8.01125 11.3483 9.44896 13.5231 10.0422 13.5231C10.2612 13.5231 10.3624 13.4223 10.3624 12.8657V10.3016C10.2957 9.11898 9.67095 9.01738 9.67095 8.5975C9.67095 8.39504 9.83894 8.19258 10.1082 8.19258H12.8538C13.2251 8.19258 13.3616 8.39504 13.3616 8.8306V12.2897C13.3616 12.6632 13.5296 12.7955 13.6308 12.7955C13.8498 12.7955 14.0373 12.6632 14.443 12.2583C15.697 10.8575 16.5955 8.69762 16.5955 8.69762C16.7125 8.44435 16.9157 8.20752 17.3575 8.20752H19.1034C19.6269 8.20752 19.7439 8.47573 19.6269 8.84928C19.4079 9.86086 17.2712 12.865 17.2712 12.865C17.0875 13.1683 17.017 13.3005 17.2712 13.639C17.4587 13.8922 18.0684 14.4174 18.4742 14.8881C19.2204 15.7323 19.7941 16.4406 19.9471 16.9307C20.1189 17.417 19.8654 17.6703 19.3726 17.6703L19.3749 17.6711Z" fill="#F2F2F2"/>
</svg>
