<svg width="97" height="17" viewBox="0 0 97 17" fill="none" xmlns="http://www.w3.org/2000/svg">
<path d="M4.36 5.7V6.12C4.02667 6.12 3.73333 6.14667 3.48 6.2C3.22667 6.24 3.06 6.37333 2.98 6.6C2.9 6.82667 2.96 7.22667 3.16 7.8L5.24 13.76L5.1 13.74L8.04 5.62L8.44 5.78L4.78 16.1C4.72667 16.1 4.67333 16.1 4.62 16.1C4.56667 16.1 4.50667 16.1 4.44 16.1L1.16 7.24C0.946667 6.70667 0.733333 6.38667 0.52 6.28C0.32 6.17333 0.146667 6.12 0 6.12V5.7C0.266667 5.74 0.54 5.77333 0.82 5.8C1.11333 5.81333 1.42667 5.82 1.76 5.82C2.17333 5.82 2.60667 5.80667 3.06 5.78C3.52667 5.75333 3.96 5.72667 4.36 5.7ZM15.34 5.7V6.1C15.0867 6.12667 14.8467 6.24 14.62 6.44C14.4067 6.62667 14.2133 6.98 14.04 7.5L11.14 16.1C11.0867 16.1 11.0333 16.1 10.98 16.1C10.9267 16.1 10.8667 16.1 10.8 16.1L7.58 7.92L8.04 5.62C8.12 5.62 8.19333 5.62 8.26 5.62C8.34 5.62 8.42 5.62 8.5 5.62L11.62 13.88L11.46 14L13.44 7.98C13.5867 7.52667 13.64 7.17333 13.6 6.92C13.5733 6.65333 13.44 6.46 13.2 6.34C12.9733 6.20667 12.62 6.12667 12.14 6.1V5.7C12.38 5.71333 12.5867 5.72667 12.76 5.74C12.9333 5.74 13.1 5.74667 13.26 5.76C13.4333 5.76 13.62 5.76 13.82 5.76C14.1267 5.76 14.4 5.75333 14.64 5.74C14.8933 5.72667 15.1267 5.71333 15.34 5.7ZM18.6028 0.339999V7.82C18.9495 6.91333 19.4295 6.28667 20.0428 5.94C20.6695 5.59333 21.3228 5.42 22.0028 5.42C22.5095 5.42 22.9295 5.48667 23.2628 5.62C23.6095 5.75333 23.8961 5.94 24.1228 6.18C24.3761 6.44667 24.5561 6.78 24.6628 7.18C24.7695 7.58 24.8228 8.12 24.8228 8.8V14.14C24.8228 14.7 24.9361 15.08 25.1628 15.28C25.4028 15.48 25.7961 15.58 26.3428 15.58V16C26.1161 15.9867 25.7695 15.9733 25.3028 15.96C24.8361 15.9333 24.3828 15.92 23.9428 15.92C23.5028 15.92 23.0695 15.9333 22.6428 15.96C22.2295 15.9733 21.9161 15.9867 21.7028 16V15.58C22.1828 15.58 22.5228 15.48 22.7228 15.28C22.9228 15.08 23.0228 14.7 23.0228 14.14V8.36C23.0228 7.94667 22.9895 7.56667 22.9228 7.22C22.8561 6.87333 22.7028 6.59333 22.4628 6.38C22.2361 6.16667 21.8828 6.06 21.4028 6.06C20.8561 6.06 20.3695 6.21333 19.9428 6.52C19.5295 6.82667 19.2028 7.25333 18.9628 7.8C18.7228 8.34667 18.6028 8.97333 18.6028 9.68V14.14C18.6028 14.7 18.7028 15.08 18.9028 15.28C19.1028 15.48 19.4428 15.58 19.9228 15.58V16C19.7095 15.9867 19.3895 15.9733 18.9628 15.96C18.5495 15.9333 18.1228 15.92 17.6828 15.92C17.2428 15.92 16.7895 15.9333 16.3228 15.96C15.8561 15.9733 15.5095 15.9867 15.2828 16V15.58C15.8295 15.58 16.2161 15.48 16.4428 15.28C16.6828 15.08 16.8028 14.7 16.8028 14.14V2.74C16.8028 2.14 16.6961 1.7 16.4828 1.42C16.2695 1.12667 15.8695 0.979999 15.2828 0.979999V0.56C15.7095 0.599999 16.1228 0.619999 16.5228 0.619999C16.9095 0.619999 17.2761 0.599999 17.6228 0.56C17.9828 0.506666 18.3095 0.433333 18.6028 0.339999ZM29.5006 0.699999C29.8473 0.699999 30.1473 0.826666 30.4006 1.08C30.654 1.33333 30.7806 1.63333 30.7806 1.98C30.7806 2.32667 30.654 2.62667 30.4006 2.88C30.1473 3.13333 29.8473 3.26 29.5006 3.26C29.154 3.26 28.854 3.13333 28.6006 2.88C28.3473 2.62667 28.2206 2.32667 28.2206 1.98C28.2206 1.63333 28.3473 1.33333 28.6006 1.08C28.854 0.826666 29.154 0.699999 29.5006 0.699999ZM30.5406 5.48V14.14C30.5406 14.7 30.654 15.08 30.8806 15.28C31.1206 15.48 31.514 15.58 32.0606 15.58V16C31.834 15.9867 31.4873 15.9733 31.0206 15.96C30.5673 15.9333 30.1073 15.92 29.6406 15.92C29.1873 15.92 28.7273 15.9333 28.2606 15.96C27.794 15.9733 27.4473 15.9867 27.2206 16V15.58C27.7673 15.58 28.154 15.48 28.3806 15.28C28.6206 15.08 28.7406 14.7 28.7406 14.14V7.88C28.7406 7.28 28.634 6.84 28.4206 6.56C28.2073 6.26667 27.8073 6.12 27.2206 6.12V5.7C27.6473 5.74 28.0606 5.76 28.4606 5.76C28.8473 5.76 29.214 5.74 29.5606 5.7C29.9206 5.64667 30.2473 5.57333 30.5406 5.48ZM36.3 2.38V5.72H39.26V6.12H36.3V13.86C36.3 14.4867 36.4133 14.9267 36.64 15.18C36.8667 15.4333 37.18 15.56 37.58 15.56C37.98 15.56 38.3267 15.4 38.62 15.08C38.9133 14.7467 39.1667 14.1933 39.38 13.42L39.78 13.52C39.6467 14.2933 39.38 14.9467 38.98 15.48C38.5933 16.0133 37.9933 16.28 37.18 16.28C36.7267 16.28 36.3533 16.22 36.06 16.1C35.7667 15.9933 35.5067 15.8333 35.28 15.62C34.9867 15.3133 34.78 14.9467 34.66 14.52C34.5533 14.0933 34.5 13.5267 34.5 12.82V6.12H32.58V5.72H34.5V2.66C34.8333 2.64667 35.1533 2.62 35.46 2.58C35.7667 2.54 36.0467 2.47333 36.3 2.38ZM45.0103 5.42C46.1836 5.42 47.097 5.78 47.7503 6.5C48.417 7.20667 48.7503 8.31333 48.7503 9.82H41.6903L41.6703 9.44H46.8303C46.857 8.78667 46.8036 8.18667 46.6703 7.64C46.537 7.08 46.3236 6.63333 46.0303 6.3C45.7503 5.96667 45.3836 5.8 44.9303 5.8C44.317 5.8 43.7703 6.10667 43.2903 6.72C42.8236 7.33333 42.5436 8.30667 42.4503 9.64L42.5103 9.72C42.4836 9.92 42.4636 10.14 42.4503 10.38C42.437 10.62 42.4303 10.86 42.4303 11.1C42.4303 12.0067 42.577 12.7867 42.8703 13.44C43.1636 14.0933 43.5436 14.5933 44.0103 14.94C44.4903 15.2733 44.9836 15.44 45.4903 15.44C45.8903 15.44 46.2703 15.38 46.6303 15.26C46.9903 15.1267 47.3236 14.9133 47.6303 14.62C47.937 14.3267 48.2036 13.9333 48.4303 13.44L48.8303 13.6C48.6836 14.04 48.4436 14.4667 48.1103 14.88C47.777 15.2933 47.357 15.6333 46.8503 15.9C46.3436 16.1533 45.757 16.28 45.0903 16.28C44.1303 16.28 43.3036 16.06 42.6103 15.62C41.9303 15.18 41.4036 14.5733 41.0303 13.8C40.6703 13.0133 40.4903 12.1133 40.4903 11.1C40.4903 9.92667 40.677 8.92 41.0503 8.08C41.4236 7.22667 41.9503 6.57333 42.6303 6.12C43.3103 5.65333 44.1036 5.42 45.0103 5.42ZM55.8275 1.96C56.3342 1.96 56.7542 2.02 57.0875 2.14C57.4208 2.24667 57.6942 2.38667 57.9075 2.56C58.0808 2.69333 58.2208 2.84 58.3275 3C58.4342 3.16 58.5142 3.32 58.5675 3.48C58.6208 3.64 58.6475 3.79333 58.6475 3.94C58.6475 4.27333 58.5275 4.53333 58.2875 4.72C58.0608 4.90667 57.8075 5 57.5275 5C57.2608 5 57.0208 4.91333 56.8075 4.74C56.5942 4.56667 56.4875 4.32 56.4875 4C56.4875 3.70667 56.5875 3.46 56.7875 3.26C56.9875 3.04667 57.2408 2.92667 57.5475 2.9C57.4942 2.72667 57.3275 2.58 57.0475 2.46C56.7808 2.32667 56.4408 2.26 56.0275 2.26C55.3475 2.26 54.7875 2.46667 54.3475 2.88C53.9208 3.28 53.7075 3.86667 53.7075 4.64C53.7075 5.01333 53.7742 5.39333 53.9075 5.78C54.0542 6.16667 54.3275 6.54667 54.7275 6.92C54.9542 6.88 55.1875 6.85333 55.4275 6.84C55.6675 6.81333 55.8475 6.8 55.9675 6.8C56.2075 6.8 56.4008 6.84 56.5475 6.92C56.6942 7 56.7675 7.11333 56.7675 7.26C56.7675 7.38 56.7142 7.47333 56.6075 7.54C56.5142 7.60667 56.3808 7.64 56.2075 7.64C55.9542 7.64 55.6875 7.58667 55.4075 7.48C55.1275 7.36 54.9075 7.26667 54.7475 7.2C53.9742 7.42667 53.3475 7.8 52.8675 8.32C52.3875 8.82667 52.1475 9.54667 52.1475 10.48C52.1475 11.4 52.3875 12.18 52.8675 12.82C53.3475 13.46 53.9875 13.9533 54.7875 14.3C55.6008 14.6333 56.5075 14.8 57.5075 14.8C58.2142 14.8 58.8808 14.72 59.5075 14.56C60.1475 14.3867 60.7075 14.14 61.1875 13.82C61.6808 13.5 62.0675 13.12 62.3475 12.68C62.6275 12.2267 62.7675 11.7133 62.7675 11.14C62.7675 10.8867 62.7142 10.5667 62.6075 10.18C62.5008 9.78 62.2808 9.39333 61.9475 9.02C61.6142 8.63333 61.1008 8.33333 60.4075 8.12L60.6475 7.92C61.6208 8.21333 62.3142 8.68667 62.7275 9.34C63.1408 9.98 63.3475 10.7 63.3475 11.5C63.3475 12.3 63.1075 13.0667 62.6275 13.8C62.1475 14.5333 61.4542 15.1333 60.5475 15.6C59.6408 16.0533 58.5408 16.28 57.2475 16.28C56.3808 16.28 55.5542 16.1667 54.7675 15.94C53.9942 15.7133 53.3075 15.3867 52.7075 14.96C52.1075 14.52 51.6342 13.9933 51.2875 13.38C50.9408 12.7667 50.7675 12.0733 50.7675 11.3C50.7675 10.58 50.9075 9.96667 51.1875 9.46C51.4675 8.94 51.8142 8.51333 52.2275 8.18C52.6408 7.84667 53.0542 7.59333 53.4675 7.42C53.8808 7.23333 54.2142 7.10667 54.4675 7.04C54.0275 6.84 53.6542 6.60667 53.3475 6.34C53.0542 6.06 52.8275 5.76 52.6675 5.44C52.5208 5.10667 52.4475 4.78 52.4475 4.46C52.4475 4.14 52.5208 3.83333 52.6675 3.54C52.8142 3.23333 53.0275 2.96 53.3075 2.72C53.5875 2.48 53.9342 2.29333 54.3475 2.16C54.7742 2.02667 55.2675 1.96 55.8275 1.96ZM63.1075 1.56C63.9342 1.56 64.6275 1.8 65.1875 2.28C65.7475 2.74667 66.0275 3.40667 66.0275 4.26C66.0275 4.71333 65.9408 5.12 65.7675 5.48C65.6075 5.82667 65.3808 6.13333 65.0875 6.4C64.8075 6.66667 64.4875 6.88667 64.1275 7.06C63.8208 7.20667 63.4142 7.36667 62.9075 7.54C62.4142 7.71333 61.8808 7.88667 61.3075 8.06C60.7475 8.23333 60.2075 8.40667 59.6875 8.58C59.1808 8.74 58.7675 8.88 58.4475 9C57.9542 9.18667 57.5342 9.42 57.1875 9.7C56.8542 9.96667 56.6875 10.3133 56.6875 10.74C56.6875 11.0867 56.7875 11.38 56.9875 11.62C57.1875 11.86 57.4275 12.04 57.7075 12.16C58.0008 12.28 58.2742 12.34 58.5275 12.34C58.6475 12.34 58.7942 12.3267 58.9675 12.3C59.1542 12.26 59.3208 12.2067 59.4675 12.14C59.6142 12.0733 59.7008 11.9933 59.7275 11.9C59.5142 11.86 59.3008 11.7667 59.0875 11.62C58.8875 11.46 58.7875 11.2133 58.7875 10.88C58.7875 10.56 58.8942 10.3067 59.1075 10.12C59.3208 9.93333 59.5808 9.84 59.8875 9.84C60.2075 9.84 60.4608 9.94 60.6475 10.14C60.8475 10.34 60.9475 10.6 60.9475 10.92C60.9475 11.2933 60.8208 11.6133 60.5675 11.88C60.3275 12.1333 60.0208 12.3267 59.6475 12.46C59.2875 12.58 58.9275 12.64 58.5675 12.64C58.1942 12.64 57.8142 12.56 57.4275 12.4C57.0408 12.24 56.7208 11.9933 56.4675 11.66C56.2142 11.3133 56.0875 10.86 56.0875 10.3C56.0875 9.83333 56.1875 9.42 56.3875 9.06C56.6008 8.7 56.9142 8.38 57.3275 8.1C57.7408 7.82 58.2475 7.58 58.8475 7.38C59.2475 7.24667 59.7342 7.1 60.3075 6.94C60.8808 6.78 61.4675 6.60667 62.0675 6.42C62.6808 6.23333 63.2342 6.02667 63.7275 5.8C64.3942 5.49333 64.8475 5.18 65.0875 4.86C65.3275 4.54 65.4475 4.21333 65.4475 3.88C65.4475 3.49333 65.3408 3.15333 65.1275 2.86C64.9142 2.55333 64.6275 2.31333 64.2675 2.14C63.9208 1.95333 63.5408 1.86 63.1275 1.86C62.9675 1.86 62.8342 1.87333 62.7275 1.9C62.6208 1.92667 62.5542 1.97333 62.5275 2.04C62.7142 2.13333 62.8542 2.26667 62.9475 2.44C63.0408 2.61333 63.0875 2.78667 63.0875 2.96C63.0875 3.24 62.9742 3.47333 62.7475 3.66C62.5342 3.84667 62.2742 3.94 61.9675 3.94C61.7142 3.94 61.4742 3.86 61.2475 3.7C61.0208 3.52667 60.9075 3.27333 60.9075 2.94C60.9075 2.59333 61.0208 2.32 61.2475 2.12C61.4875 1.92 61.7742 1.78 62.1075 1.7C62.4542 1.60667 62.7875 1.56 63.1075 1.56ZM73.2258 5.42C73.5858 5.42 73.8991 5.49333 74.1658 5.64C74.4458 5.78667 74.6591 5.98 74.8058 6.22C74.9658 6.44667 75.0458 6.70667 75.0458 7C75.0458 7.33333 74.9391 7.62667 74.7258 7.88C74.5258 8.13333 74.2524 8.26 73.9058 8.26C73.6258 8.26 73.3791 8.17333 73.1658 8C72.9524 7.81333 72.8458 7.55333 72.8458 7.22C72.8458 6.96667 72.9124 6.75333 73.0458 6.58C73.1924 6.39333 73.3524 6.24667 73.5258 6.14C73.4324 6.00667 73.2924 5.94 73.1058 5.94C72.6924 5.94 72.3124 6.06667 71.9658 6.32C71.6191 6.56 71.3258 6.87333 71.0858 7.26C70.8458 7.64667 70.6591 8.06 70.5258 8.5C70.3924 8.92667 70.3258 9.32667 70.3258 9.7V13.94C70.3258 14.5933 70.5124 15.0333 70.8858 15.26C71.2724 15.4733 71.7924 15.58 72.4458 15.58V16C72.1391 15.9867 71.7058 15.9733 71.1458 15.96C70.5858 15.9333 69.9924 15.92 69.3658 15.92C68.9124 15.92 68.4591 15.9333 68.0058 15.96C67.5658 15.9733 67.2324 15.9867 67.0058 16V15.58C67.5524 15.58 67.9391 15.48 68.1658 15.28C68.4058 15.08 68.5258 14.7 68.5258 14.14V7.88C68.5258 7.28 68.4191 6.84 68.2058 6.56C67.9924 6.26667 67.5924 6.12 67.0058 6.12V5.7C67.4324 5.74 67.8458 5.76 68.2458 5.76C68.6324 5.76 68.9991 5.74 69.3458 5.7C69.7058 5.64667 70.0324 5.57333 70.3258 5.48V7.98C70.4724 7.59333 70.6791 7.20667 70.9458 6.82C71.2258 6.42 71.5591 6.08667 71.9458 5.82C72.3324 5.55333 72.7591 5.42 73.2258 5.42ZM80.3814 5.42C81.5547 5.42 82.4681 5.78 83.1214 6.5C83.7881 7.20667 84.1214 8.31333 84.1214 9.82H77.0614L77.0414 9.44H82.2014C82.2281 8.78667 82.1747 8.18667 82.0414 7.64C81.9081 7.08 81.6947 6.63333 81.4014 6.3C81.1214 5.96667 80.7547 5.8 80.3014 5.8C79.6881 5.8 79.1414 6.10667 78.6614 6.72C78.1947 7.33333 77.9147 8.30667 77.8214 9.64L77.8814 9.72C77.8547 9.92 77.8347 10.14 77.8214 10.38C77.8081 10.62 77.8014 10.86 77.8014 11.1C77.8014 12.0067 77.9481 12.7867 78.2414 13.44C78.5347 14.0933 78.9147 14.5933 79.3814 14.94C79.8614 15.2733 80.3547 15.44 80.8614 15.44C81.2614 15.44 81.6414 15.38 82.0014 15.26C82.3614 15.1267 82.6947 14.9133 83.0014 14.62C83.3081 14.3267 83.5747 13.9333 83.8014 13.44L84.2014 13.6C84.0547 14.04 83.8147 14.4667 83.4814 14.88C83.1481 15.2933 82.7281 15.6333 82.2214 15.9C81.7147 16.1533 81.1281 16.28 80.4614 16.28C79.5014 16.28 78.6747 16.06 77.9814 15.62C77.3014 15.18 76.7747 14.5733 76.4014 13.8C76.0414 13.0133 75.8614 12.1133 75.8614 11.1C75.8614 9.92667 76.0481 8.92 76.4214 8.08C76.7947 7.22667 77.3214 6.57333 78.0014 6.12C78.6814 5.65333 79.4747 5.42 80.3814 5.42ZM94.7386 0.319999V13.82C94.7386 14.42 94.8453 14.8667 95.0586 15.16C95.2853 15.44 95.6853 15.58 96.2586 15.58V16C95.8453 15.96 95.4319 15.94 95.0186 15.94C94.6319 15.94 94.2586 15.96 93.8986 16C93.5519 16.04 93.2319 16.1133 92.9386 16.22V2.72C92.9386 2.12 92.8319 1.68 92.6186 1.4C92.4053 1.10667 92.0053 0.959999 91.4186 0.959999V0.539999C91.8453 0.579999 92.2586 0.599999 92.6586 0.599999C93.0453 0.599999 93.4119 0.579999 93.7586 0.539999C94.1186 0.486666 94.4453 0.413333 94.7386 0.319999ZM90.5386 5.42C91.1253 5.42 91.6719 5.56 92.1786 5.84C92.6986 6.12 93.0453 6.6 93.2186 7.28L92.9586 7.48C92.7719 6.92 92.4786 6.51333 92.0786 6.26C91.6919 6.00667 91.2319 5.88 90.6986 5.88C89.9119 5.88 89.2519 6.28667 88.7186 7.1C88.1986 7.91333 87.9453 9.16667 87.9586 10.86C87.9586 11.94 88.0586 12.84 88.2586 13.56C88.4719 14.2667 88.7786 14.8 89.1786 15.16C89.5919 15.5067 90.0919 15.68 90.6786 15.68C91.2386 15.68 91.7453 15.44 92.1986 14.96C92.6519 14.48 92.9253 13.7733 93.0186 12.84L93.2586 13.12C93.1519 14.1333 92.8253 14.9133 92.2786 15.46C91.7453 16.0067 91.0186 16.28 90.0986 16.28C89.2719 16.28 88.5453 16.08 87.9186 15.68C87.3053 15.28 86.8319 14.68 86.4986 13.88C86.1786 13.08 86.0186 12.0733 86.0186 10.86C86.0186 9.64667 86.2253 8.64 86.6386 7.84C87.0653 7.02667 87.6186 6.42 88.2986 6.02C88.9919 5.62 89.7386 5.42 90.5386 5.42Z" fill="white"/>
</svg>
